<?xml version="1.0" encoding="UTF-8"?>
<svg xmlns="http://www.w3.org/2000/svg" viewBox="0 0 20 20">
<path d="M6.47639 5.64357L6.47784 5.64501C6.52471 5.69149 6.5619 5.74679 6.58729 5.80772C6.61267 5.86865 6.62574 5.934 6.62574 6.00001C6.62574 6.06601 6.61267 6.13137 6.58729 6.1923C6.5619 6.25323 6.52471 6.30853 6.47784 6.35501L6.47639 6.35646L2.23783 10.595C2.23763 10.5952 2.23743 10.5954 2.23723 10.5956C2.19063 10.6417 2.13544 10.6781 2.07479 10.7029C2.01387 10.7278 1.94864 10.7404 1.88283 10.74L1.88283 10.74L1.87705 10.74C1.81125 10.7404 1.74602 10.7278 1.6851 10.7029C1.62472 10.6782 1.56975 10.642 1.5233 10.5962C1.43095 10.5027 1.37915 10.3765 1.37915 10.245C1.37915 10.1131 1.43124 9.98663 1.52406 9.893C1.52422 9.89284 1.52438 9.89267 1.52455 9.89251L5.0635 6.35356L5.41705 6.00001L5.0635 5.64646L1.52455 2.10751C1.5244 2.10736 1.52425 2.10721 1.5241 2.10706C1.43125 2.01342 1.37915 1.88689 1.37915 1.75501C1.37915 1.62292 1.43142 1.49619 1.52455 1.40251L1.52494 1.40211C1.57142 1.35525 1.62673 1.31805 1.68765 1.29266C1.74858 1.26728 1.81394 1.25421 1.87994 1.25421C1.94595 1.25421 2.0113 1.26728 2.07223 1.29266C2.13316 1.31805 2.18846 1.35525 2.23494 1.40211L2.23494 1.40211L2.23639 1.40356L6.47639 5.64356L6.47639 5.64357Z" fill="#777E90" stroke="#2BAEE5"/>
</svg>

