<?xml version="1.0" encoding="UTF-8"?>
<svg xmlns="http://www.w3.org/2000/svg" viewBox="0 0 20 17">
<path d="M7.33317 0.333374C6.01463 0.333374 4.7257 0.724367 3.62937 1.45691C2.53304 2.18945 1.67856 3.23064 1.17398 4.44882C0.669392 5.66699 0.53737 7.00744 0.794605 8.30064C1.05184 9.59385 1.68678 10.7817 2.61913 11.7141C3.55148 12.6464 4.73937 13.2814 6.03257 13.5386C7.32578 13.7958 8.66622 13.6638 9.8844 13.1592C11.1026 12.6547 12.1438 11.8002 12.8763 10.7038C13.6088 9.60751 13.9998 8.31858 13.9998 7.00004C13.9998 6.12456 13.8274 5.25765 13.4924 4.44882C13.1573 3.63998 12.6663 2.90505 12.0472 2.286C11.4282 1.66694 10.6932 1.17588 9.8844 0.840844C9.07556 0.505812 8.20865 0.333374 7.33317 0.333374V0.333374ZM7.33317 12.3334C6.27834 12.3334 5.24719 12.0206 4.37013 11.4345C3.49307 10.8485 2.80948 10.0156 2.40582 9.04102C2.00215 8.06648 1.89653 6.99412 2.10232 5.95956C2.30811 4.92499 2.81606 3.97468 3.56194 3.2288C4.30782 2.48292 5.25813 1.97497 6.29269 1.76919C7.32726 1.5634 8.39961 1.66902 9.37415 2.07268C10.3487 2.47635 11.1816 3.15994 11.7677 4.037C12.3537 4.91406 12.6665 5.94521 12.6665 7.00004C12.6665 8.41453 12.1046 9.77108 11.1044 10.7713C10.1042 11.7715 8.74766 12.3334 7.33317 12.3334V12.3334ZM9.39984 7.42004L7.99984 6.61337V3.66671C7.99984 3.4899 7.9296 3.32033 7.80458 3.1953C7.67955 3.07028 7.50998 3.00004 7.33317 3.00004C7.15636 3.00004 6.98679 3.07028 6.86177 3.1953C6.73675 3.32033 6.66651 3.4899 6.66651 3.66671V7.00004C6.66651 7.00004 6.66651 7.05337 6.66651 7.08004C6.67045 7.12598 6.68171 7.17099 6.69984 7.21337C6.71357 7.25293 6.73145 7.29092 6.75317 7.32671C6.77142 7.3646 6.79377 7.40037 6.81984 7.43337L6.92651 7.52004L6.98651 7.58004L8.71984 8.58004C8.82144 8.63763 8.93639 8.66751 9.05317 8.66671C9.20079 8.66774 9.34456 8.61975 9.46197 8.53027C9.57937 8.44078 9.66375 8.31487 9.70188 8.17226C9.74001 8.02966 9.72973 7.87843 9.67265 7.74229C9.61558 7.60616 9.51494 7.49282 9.38651 7.42004H9.39984Z" fill="#0094CA"/>
</svg>