<?xml version="1.0" encoding="UTF-8"?>
<svg xmlns="http://www.w3.org/2000/svg" viewBox="0 0 24 24">
<path d="M19 0.532776H3C2.20435 0.532776 1.44129 0.848846 0.87868 1.41146C0.316071 1.97406 0 2.73713 0 3.53278V15.5328C0 16.3284 0.316071 17.0915 0.87868 17.6541C1.44129 18.2167 2.20435 18.5328 3 18.5328H10V20.5328H6C5.73478 20.5328 5.48043 20.6381 5.29289 20.8257C5.10536 21.0132 5 21.2676 5 21.5328C5 21.798 5.10536 22.0523 5.29289 22.2399C5.48043 22.4274 5.73478 22.5328 6 22.5328H16C16.2652 22.5328 16.5196 22.4274 16.7071 22.2399C16.8946 22.0523 17 21.798 17 21.5328C17 21.2676 16.8946 21.0132 16.7071 20.8257C16.5196 20.6381 16.2652 20.5328 16 20.5328H12V18.5328H19C19.7956 18.5328 20.5587 18.2167 21.1213 17.6541C21.6839 17.0915 22 16.3284 22 15.5328V3.53278C22 2.73713 21.6839 1.97406 21.1213 1.41146C20.5587 0.848846 19.7956 0.532776 19 0.532776ZM20 15.5328C20 15.798 19.8946 16.0523 19.7071 16.2399C19.5196 16.4274 19.2652 16.5328 19 16.5328H3C2.73478 16.5328 2.48043 16.4274 2.29289 16.2399C2.10536 16.0523 2 15.798 2 15.5328V3.53278C2 3.26756 2.10536 3.01321 2.29289 2.82567C2.48043 2.63813 2.73478 2.53278 3 2.53278H19C19.2652 2.53278 19.5196 2.63813 19.7071 2.82567C19.8946 3.01321 20 3.26756 20 3.53278V15.5328Z" 
fill="#B1B5C3"/>
</svg>