<?xml version="1.0" encoding="UTF-8"?>
<svg xmlns="http://www.w3.org/2000/svg" viewBox="0 0 48 48" fill="none" >

<path fill-rule="evenodd" clip-rule="evenodd" d="M31.0588 35.6669C27.8364 37.8396 25.2145 39.322 24.4832 39.7266C24.2759 39.8416 24.0387 39.9022 23.7978 39.9022H23.7689C23.528 39.9022 23.2909 39.8416 23.0835 39.7266C22.4975 39.4025 20.7 38.3879 18.3529 36.8813C18.8128 36.8304 19.2539 36.767 19.6831 36.6893L19.691 36.6878C19.8888 36.6481 20.0784 36.6077 20.2688 36.5685C21.6805 37.4467 22.8939 38.152 23.7689 38.6354H23.7978C24.8714 38.0412 26.4561 37.1156 28.2929 35.9417C28.5379 35.9001 28.8305 35.8573 29.2341 35.8053C29.6848 35.7559 30.051 35.7233 30.4086 35.7003C30.6243 35.6867 30.842 35.6759 31.0588 35.6669ZM33.5323 32.1375C34.0885 32.1375 34.6354 32.157 35.1743 32.1964C35.8039 32.2354 36.3596 32.3173 36.9095 32.3876L36.9842 32.3982L37.0372 32.4088L37.1422 32.4313L37.3509 32.4746C37.4895 32.503 37.6244 32.5356 37.7588 32.567C38.028 32.6293 38.2868 32.6992 38.5409 32.7645C39.5494 33.0456 40.4386 33.3352 41.2258 33.5662C42.0138 33.7922 42.7027 33.9643 43.2832 34.0648C43.8645 34.1721 44.324 34.22 44.6445 34.2484C44.9684 34.2725 45.1414 34.2848 45.1414 34.2848C45.1624 34.2861 45.1784 34.3056 45.1765 34.3264C45.1754 34.3433 45.1633 34.3565 45.1477 34.3607L45.1164 34.3683C45.0541 34.3835 44.8999 34.4209 44.663 34.4782C44.5051 34.5146 44.3034 34.5401 44.0649 34.5803C43.8288 34.6083 43.5549 34.6414 43.247 34.6524C43.0815 34.6609 42.9055 34.6647 42.7203 34.6647C42.2184 34.6647 41.6484 34.632 41.0292 34.554C40.1795 34.4599 39.2457 34.2751 38.249 34.1089C38.0016 34.0678 37.7474 34.0233 37.4925 33.9889C37.3635 33.9694 37.2346 33.9503 37.1048 33.9363C36.9826 33.9219 36.8582 33.9062 36.7331 33.8918C36.1841 33.8329 35.6061 33.76 35.06 33.7405C34.9206 33.7316 34.7803 33.7239 34.6396 33.715C34.4951 33.7133 34.3506 33.7108 34.2048 33.7078C33.9902 33.7061 33.7743 33.696 33.5563 33.696C33.4769 33.696 33.3979 33.6972 33.3181 33.701C32.72 33.7061 32.108 33.7439 31.4851 33.7816C28.9942 33.9737 26.3349 34.4909 23.6727 35.1005C22.337 35.4041 21.0156 35.722 19.6752 36.0107C18.3042 36.2791 16.9475 36.3597 15.647 36.372L15.4055 36.3728C14.1895 36.3728 13.0192 36.305 11.9103 36.1969C10.7292 36.0777 9.61817 35.9175 8.6021 35.7208C7.58644 35.5232 6.66319 35.3006 5.85839 35.0564C5.05275 34.8152 4.36431 34.5583 3.81027 34.3175C3.25582 34.0762 2.83746 33.8507 2.55771 33.69C2.28217 33.5196 2.13557 33.4293 2.13557 33.4293C2.11765 33.4187 2.11247 33.395 2.12297 33.3767C2.13011 33.3657 2.14271 33.3589 2.15573 33.3589C2.16162 33.3589 2.1675 33.3602 2.17296 33.3632C2.17464 33.3649 2.32543 33.445 2.6077 33.5955C2.89459 33.7362 3.32135 33.9321 3.88168 34.1348C5.00109 34.5413 6.65983 34.9564 8.68106 35.226C9.69126 35.3634 10.7926 35.4579 11.957 35.5084C12.448 35.5279 12.9508 35.5385 13.4624 35.5385C14.1647 35.5385 14.8846 35.5177 15.6151 35.4711C16.8769 35.3867 18.1744 35.2319 19.4345 34.9093C20.7337 34.5634 22.0531 34.2123 23.372 33.8605C26.022 33.1525 28.7271 32.4707 31.3574 32.2367C32.0954 32.1702 32.8212 32.1375 33.5323 32.1375ZM33.6702 34.2552C34.0952 34.2552 34.5244 34.2682 34.9535 34.2916C35.4695 34.3145 35.9858 34.373 36.4921 34.4513C36.9879 34.5291 37.4925 34.6263 37.962 34.7334C38.9079 34.9457 39.7734 35.177 40.5236 35.3191C40.8983 35.388 41.2449 35.4339 41.5538 35.4613C41.8279 35.4865 42.0722 35.4951 42.2797 35.4951L42.3543 35.4946C42.5764 35.4874 42.7533 35.4793 42.8732 35.4663C42.9926 35.4564 43.0571 35.451 43.0571 35.451C43.058 35.451 43.0588 35.451 43.0588 35.4523C43.0571 35.4537 42.9947 35.469 42.8773 35.4978C42.7604 35.5306 42.5873 35.563 42.3623 35.5967C42.1372 35.6282 41.8635 35.6552 41.5471 35.666C41.5106 35.6665 41.4737 35.6669 41.4364 35.6669C41.1485 35.6669 40.83 35.6521 40.4875 35.6228C40.1015 35.585 39.6824 35.536 39.2461 35.4627C38.8111 35.3893 38.3521 35.3124 37.8773 35.2328C37.4012 35.1522 36.9255 35.087 36.42 35.0312C35.9238 34.9795 35.4196 34.9264 34.9154 34.8751C34.4099 34.822 33.9024 34.7896 33.4028 34.7662C32.9887 34.7451 32.5805 34.7383 32.1819 34.7383C32.0989 34.7383 32.0168 34.7388 31.9342 34.7392C31.4577 34.7478 30.9967 34.7698 30.5604 34.8013C30.1236 34.8328 29.7129 34.8792 29.3324 34.9264C28.9531 34.9831 28.6064 35.0384 28.3005 35.1001C27.992 35.1504 27.7288 35.2224 27.5092 35.2692C27.0746 35.3812 26.8256 35.451 26.8256 35.451C26.8235 35.451 26.8235 35.4487 26.8244 35.4487C26.8244 35.4487 27.0649 35.3542 27.4916 35.1999C27.7062 35.1324 27.966 35.0348 28.2703 34.9538C28.5717 34.8598 28.9183 34.7824 29.2963 34.6943C29.6765 34.616 30.0897 34.5381 30.5289 34.4711C30.9694 34.409 31.4346 34.3591 31.9175 34.3213C32.4011 34.2875 32.9011 34.2619 33.4099 34.257C33.4967 34.2561 33.583 34.2552 33.6702 34.2552ZM6.35294 33.5493L6.38744 33.5526C6.45571 33.5591 6.62312 33.575 6.87014 33.5988C7.03355 33.6176 7.23192 33.6387 7.4602 33.6635C7.68595 33.6929 7.94623 33.7048 8.22631 33.7299C8.50681 33.7527 8.81132 33.7784 9.13183 33.8051C9.45402 33.8226 9.79433 33.8415 10.1456 33.86C10.3208 33.8702 10.4989 33.8844 10.68 33.8917C10.8607 33.8959 11.0444 33.9009 11.2288 33.9058C11.5742 33.9115 11.9238 33.9356 12.2742 33.9356C12.2986 33.9356 12.3235 33.9352 12.3479 33.9352C12.4915 33.9342 12.6347 33.9339 12.7779 33.9339C13.0091 33.9339 13.2391 33.9349 13.4669 33.9369C13.504 33.9375 13.5411 33.9379 13.5777 33.9379C13.9087 33.9379 14.2343 33.9164 14.5506 33.9148C14.9023 33.9058 15.2434 33.9042 15.5631 33.8827C15.8849 33.8669 16.189 33.8514 16.469 33.8368C16.7516 33.8299 17.0094 33.8042 17.2389 33.7877C17.4685 33.7701 17.6685 33.7546 17.8341 33.7427C18.163 33.7177 18.3529 33.7097 18.3529 33.7097C18.3529 33.7097 18.3074 33.7198 18.2214 33.7374L17.9623 33.7885L17.848 33.8101C17.6866 33.8395 17.4912 33.8751 17.2663 33.9164C17.0431 33.9607 16.7891 34.0049 16.5061 34.0336C16.2239 34.0653 15.9173 34.1 15.5939 34.1363C15.2695 34.1802 14.9255 34.1878 14.5704 34.2103C14.2213 34.2268 13.8612 34.2535 13.4947 34.2535H13.4737L13.0032 34.2552C12.783 34.2552 12.5614 34.2542 12.3399 34.2522C11.9604 34.2495 11.5805 34.2254 11.2078 34.2083C11.0212 34.198 10.8363 34.1885 10.6531 34.1789C10.4711 34.1663 10.2917 34.1475 10.1144 34.132C9.7619 34.097 9.42033 34.0633 9.09687 34.0313C8.77636 33.9848 8.47269 33.9408 8.19346 33.9002C7.95303 33.868 7.73202 33.8296 7.53261 33.7915L7.16325 33.7177C7.05017 33.6945 6.94733 33.6734 6.8554 33.6562C6.53615 33.5882 6.35294 33.5493 6.35294 33.5493ZM24 18.0199C25.3564 18.0199 26.719 18.3685 28.0611 18.7342L28.8636 18.9531L29.6467 19.0026L29.6471 18.7257H30.3529L30.3523 19.0486L31.7647 19.1392L31.5294 20.1375L30.3523 20.0538L30.3547 21.2764C30.4795 21.3227 30.5991 21.3686 30.7133 21.4139L30.9234 21.4988L31.0588 22.2552C30.8357 22.1665 30.5931 22.0754 30.3311 21.9844C28.9239 21.4945 26.6831 20.9108 24.0004 20.9108L24.0012 21.5525C26.3944 21.5963 28.3915 22.0745 29.668 22.4789C30.1518 22.6321 30.5699 22.786 30.9132 22.9237L31.0588 23.6669C30.7405 23.5437 30.37 23.4104 29.9515 23.2771C28.5497 22.8308 26.3185 22.2994 23.6468 22.2994L24 22.3021L24.001 22.961C26.5122 22.9612 28.6326 23.4946 30.032 23.9746L30.2586 24.054C31.3549 24.4465 32.1259 24.8428 32.4706 25.0333L31.2498 29.8199C31.2428 29.8203 31.2366 29.8208 31.2296 29.8212C28.6574 30.0534 26.0124 30.7294 23.4204 31.432C22.1302 31.7812 20.8403 32.1303 19.5698 32.4732C18.9466 32.6352 18.3141 32.7542 17.6819 32.8434L15.5294 25.0338C16.306 24.6057 19.2534 23.1335 23.2936 22.9749L23.2934 22.3024C20.7786 22.3464 18.6818 22.8507 17.3426 23.2771C16.9237 23.4104 16.5532 23.5437 16.2353 23.6669L16.3809 22.9237C16.7242 22.786 17.1418 22.6321 17.6261 22.4789C18.9656 22.0547 21.097 21.5493 23.6468 21.5493L23.2934 21.5523L23.293 20.9242C21.0538 21.0093 19.1688 21.482 17.8866 21.9103L17.6693 21.9844C17.4073 22.0754 17.1647 22.1665 16.9412 22.2552L17.0771 21.4988C17.2521 21.4266 17.4419 21.352 17.6456 21.2766L17.6467 20.0538L16.471 20.1375L16.2353 19.1366L17.6467 19.0467L17.6471 18.7257H18.3529L18.3523 19.0026L19.1368 18.9531C20.7361 18.5219 22.372 18.0199 24 18.0199ZM34.3641 0.372803C37.3665 0.372803 41.6723 1.58358 44.7527 4.98143C47.2896 7.77966 48.3733 11.4417 47.8863 15.5714C47.2459 21.0022 42.0393 26.6275 36.7013 31.0647C36.2366 31.005 35.756 30.9444 35.2138 30.9114C35.0724 30.9015 34.9261 30.8962 34.7818 30.8888C40.3756 26.4116 45.9035 20.7129 46.528 15.4165C47.6284 6.08177 39.8673 1.71628 34.3641 1.71628C28.8613 1.71628 24.5957 5.31648 23.9973 9.42027C23.3686 5.31648 19.1387 1.71628 13.6359 1.71628C8.13315 1.71628 0.371157 6.08177 1.47163 15.4165C2.18794 21.4922 9.35734 28.0975 15.6767 32.7812C15.4804 32.7956 15.269 32.8018 15.0442 32.8075C14.9553 32.81 14.8656 32.8121 14.7754 32.8154C14.6139 32.8162 14.4541 32.8232 14.2998 32.8298C14.1342 32.8368 13.9777 32.8434 13.823 32.8434C13.7919 32.8434 13.7605 32.8434 13.729 32.8426C13.659 32.8417 13.5898 32.8422 13.5198 32.8413C7.49611 28.1948 0.842966 21.7572 0.113654 15.5714C-0.373254 11.4417 0.71044 7.77966 3.24689 4.98143C6.32728 1.58358 10.6331 0.372803 13.6359 0.372803C16.5356 0.372803 19.3253 1.29675 21.4906 2.97446C22.5051 3.75994 23.3476 4.67688 23.991 5.67996C24.6331 4.67771 25.4773 3.76035 26.4964 2.97322C28.6671 1.29634 31.4615 0.372803 34.3641 0.372803ZM24 19.0121C22.4345 19.0121 20.8607 19.5075 19.3215 19.9265L19.275 19.9392L18.3523 20.0038L18.3513 21.0324C19.5556 20.6439 21.2719 20.2322 23.2934 20.1516L23.2941 20.1375H24L24.3985 20.142C26.5535 20.1905 28.3836 20.6242 29.649 21.0323L29.6467 20.0038L28.7254 19.9392L28.6785 19.9265C27.1397 19.5075 25.5655 19.0121 24 19.0121ZM23.6475 14.4904C26.4002 14.4904 28.6212 15.4259 28.888 15.5428L28.9149 15.5547C28.9149 15.5547 28.9913 15.7179 29.07 15.8917L29.6471 16.0541L29.6467 16.8838L31.5294 17.0028L31.7647 18.0199L29.6467 17.8813L29.6471 17.901L29.0621 17.8429L28.725 17.8215L28.6785 17.8088L28.6598 17.8035L28.3119 17.7698L28.3114 17.7066L28.258 17.6931C26.8536 17.3039 25.4232 16.8944 24 16.8944C22.4345 16.8944 20.8603 17.3899 19.3215 17.8088L19.275 17.8215L18.9821 17.84L18.9826 18.0199L17.6471 17.9365L17.6467 17.9274L16.2353 18.0199L16.4706 17.0014L17.6467 16.928L17.6471 16.0541L18.2241 15.8917C18.3033 15.7179 18.3792 15.5547 18.3792 15.5547C18.3792 15.5547 20.7104 14.4904 23.6475 14.4904ZM23.6475 15.6008C22.1016 15.6008 20.5476 16.1042 19.0285 16.5294L18.9826 16.5423L18.9821 16.8445L19.1364 16.8354C20.7361 16.4042 22.372 15.9022 24 15.9022C25.4411 15.9022 26.8892 16.2957 28.3119 16.6852L28.3119 16.5423L28.266 16.5294C26.7465 16.1042 25.1929 15.6008 23.6475 15.6008ZM24.0149 13.7846C24.3797 13.7846 24.7449 13.7909 25.1102 13.8027L25.4118 14.4892C25.0465 14.4769 24.3797 14.4702 24.0149 14.4702C23.6403 14.4702 22.9632 14.4772 22.5882 14.4904L22.8898 13.8036C23.2648 13.7912 23.6403 13.7846 24.0149 13.7846ZM23.7142 10.961L23.8118 11.6854L24 11.6669L26.1176 11.8781V12.1623L24 12.3728L23.903 12.3632L23.9222 12.5062L24 12.4995L25.4118 12.635V12.8172L24 12.952L23.9827 12.9498L24 13.0787H23.2941L23.3203 12.8864L22.5882 12.8172V12.635L23.3645 12.56L23.399 12.3133L21.8824 12.1623V11.8781L23.4806 11.7181L23.5854 10.961H23.7142Z" fill="#777E90"/>
</svg>
