<?xml version="1.0" encoding="UTF-8"?>
<svg xmlns="http://www.w3.org/2000/svg" viewBox="0 0 24 24">
<path d="M0.829828 7.8L0.829834 7.8L0.830788 7.79779C2.79562 3.23587 6.44527 0.5 10.2916 0.5C14.1379 0.5 17.7875 3.23587 19.7524 7.79779L20.2116 7.6L19.7533 7.8C19.7808 7.86308 19.7951 7.93117 19.7951 8C19.7951 8.06883 19.7808 8.13692 19.7533 8.2L19.7524 8.20221C17.7875 12.7641 14.1379 15.5 10.2916 15.5C6.44527 15.5 2.79562 12.7641 0.830793 8.20221L0.829828 8.2C0.802297 8.13692 0.788086 8.06883 0.788086 8C0.788086 7.93117 0.802297 7.86308 0.829828 7.8ZM1.93842 7.78869L1.83988 8L1.93842 8.21131C3.72104 12.0342 6.866 14.5 10.2916 14.5C13.7171 14.5 16.8621 12.0342 18.6447 8.21131L18.7433 8L18.6447 7.78869C16.8621 3.96583 13.7171 1.5 10.2916 1.5C6.866 1.5 3.72104 3.96583 1.93842 7.78869ZM8.34708 5.08986C8.92265 4.70527 9.59934 4.5 10.2916 4.5C11.2198 4.5 12.1101 4.86875 12.7664 5.52513C13.4228 6.1815 13.7916 7.07174 13.7916 8C13.7916 8.69223 13.5863 9.36892 13.2017 9.9445C12.8171 10.5201 12.2705 10.9687 11.631 11.2336C10.9914 11.4985 10.2877 11.5678 9.60876 11.4327C8.92982 11.2977 8.30618 10.9644 7.8167 10.4749C7.32721 9.98539 6.99387 9.36175 6.85882 8.68282C6.72377 8.00388 6.79309 7.30015 7.05799 6.66061C7.3229 6.02107 7.7715 5.47444 8.34708 5.08986ZM8.90265 10.0787C9.31377 10.3534 9.79712 10.5 10.2916 10.5C10.9546 10.5 11.5905 10.2366 12.0593 9.76777C12.5282 9.29893 12.7916 8.66304 12.7916 8C12.7916 7.50555 12.6449 7.0222 12.3702 6.61107C12.0955 6.19995 11.7051 5.87952 11.2483 5.6903C10.7915 5.50108 10.2888 5.45157 9.80384 5.54804C9.31889 5.6445 8.87344 5.8826 8.5238 6.23223C8.17417 6.58186 7.93607 7.02732 7.83961 7.51227C7.74314 7.99723 7.79265 8.49989 7.98187 8.95671C8.17109 9.41352 8.49152 9.80397 8.90265 10.0787Z" fill="#777E90" stroke="#777E90"/>
</svg>





