<?xml version="1.0" encoding="UTF-8"?>
<svg xmlns="http://www.w3.org/2000/svg" viewBox="0 0 24 24">
<path d="M12 12V11C11.4477 11 11 11.4477 11 12H12ZM19 12H20C20 11.4477 19.5523 11 19 11V12ZM19 19V20C19.5523 20 20 19.5523 20 19H19ZM12 19H11C11 19.5523 11.4477 20 12 20V19ZM1 12V11C0.447715 11 0 11.4477 0 12H1ZM8 12H9C9 11.4477 8.55228 11 8 11V12ZM8 19V20C8.55228 20 9 19.5523 9 19H8ZM1 19H0C0 19.5523 0.447715 20 1 20L1 19ZM12 1V0C11.4477 0 11 0.447715 11 1L12 1ZM19 1H20C20 0.447715 19.5523 0 19 0V1ZM19 8V9C19.5523 9 20 8.55228 20 8H19ZM12 8H11C11 8.55228 11.4477 9 12 9V8ZM1 1V0C0.447715 0 0 0.447715 0 1L1 1ZM8 1H9C9 0.447715 8.55228 0 8 0V1ZM8 8V9C8.55228 9 9 8.55228 9 8H8ZM1 8H0C0 8.55228 0.447715 9 1 9L1 8ZM12 13H19V11H12V13ZM18 12V19H20V12H18ZM19 18H12V20H19V18ZM13 19V12H11V19H13ZM1 13H8V11H1V13ZM7 12V19H9V12H7ZM8 18H1V20H8V18ZM2 19V12H0V19H2ZM12 2H19V0H12V2ZM18 1V8H20V1H18ZM19 7H12V9H19V7ZM13 8V1H11V8H13ZM1 2H8V0H1V2ZM7 1V8H9V1H7ZM8 7H1V9H8V7ZM2 8V1H0V8H2Z" fill="#B1B5C3"/>
</svg>