<?xml version="1.0" encoding="UTF-8"?>
<svg xmlns="http://www.w3.org/2000/svg" viewBox="0 0 24 24">
<path d="M14.6667 5.8532L9.66675 1.46986C9.20839 1.0599 8.61502 0.833252 8.00008 0.833252C7.38514 0.833252 6.79176 1.0599 6.33341 1.46986L1.33341 5.8532C1.06872 6.08992 0.857496 6.38033 0.713806 6.70507C0.570115 7.02981 0.497256 7.38143 0.500079 7.73653V15.0199C0.500079 15.6829 0.763471 16.3188 1.23231 16.7876C1.70115 17.2565 2.33704 17.5199 3.00008 17.5199H13.0001C13.6631 17.5199 14.299 17.2565 14.7678 16.7876C15.2367 16.3188 15.5001 15.6829 15.5001 15.0199V7.72819C15.5017 7.3745 15.4283 7.02448 15.2846 6.70126C15.141 6.37805 14.9304 6.08899 14.6667 5.8532V5.8532ZM9.66675 15.8532H6.33341V11.6865C6.33341 11.4655 6.42121 11.2536 6.57749 11.0973C6.73377 10.941 6.94573 10.8532 7.16675 10.8532H8.83341C9.05443 10.8532 9.26639 10.941 9.42267 11.0973C9.57895 11.2536 9.66675 11.4655 9.66675 11.6865V15.8532ZM13.8334 15.0199C13.8334 15.2409 13.7456 15.4528 13.5893 15.6091C13.4331 15.7654 13.2211 15.8532 13.0001 15.8532H11.3334V11.6865C11.3334 11.0235 11.07 10.3876 10.6012 9.91876C10.1323 9.44992 9.49645 9.18653 8.83341 9.18653H7.16675C6.5037 9.18653 5.86782 9.44992 5.39898 9.91876C4.93014 10.3876 4.66675 11.0235 4.66675 11.6865V15.8532H3.00008C2.77907 15.8532 2.5671 15.7654 2.41082 15.6091C2.25454 15.4528 2.16675 15.2409 2.16675 15.0199V7.72819C2.1669 7.60987 2.19224 7.49294 2.24109 7.38518C2.28995 7.27741 2.36119 7.18129 2.45008 7.1032L7.45008 2.7282C7.60215 2.5946 7.79766 2.52092 8.00008 2.52092C8.2025 2.52092 8.39801 2.5946 8.55008 2.7282L13.5501 7.1032C13.639 7.18129 13.7102 7.27741 13.7591 7.38518C13.8079 7.49294 13.8333 7.60987 13.8334 7.72819V15.0199Z" fill="#777E90"/>
</svg>