<?xml version="1.0" encoding="UTF-8"?>
<svg xmlns="http://www.w3.org/2000/svg" viewBox="0 0 48 48">
<path fill-rule="evenodd" clip-rule="evenodd" d="M45.1239 30.9729C45.2785 30.467 45.8132 30.178 46.322 30.3345C46.8288 30.4881 47.1149 31.0257 46.9613 31.5326C43.8644 41.7009 34.6378 48.5323 24 48.5323C13.3632 48.5323 4.13573 41.7009 1.03973 31.5326C0.886129 31.0257 1.17221 30.4881 1.67909 30.3345C2.18789 30.178 2.72261 30.467 2.87717 30.9729C3.67493 33.5937 4.92293 35.9659 6.51077 38.0337C8.36933 37.0123 10.5216 36.1703 12.8928 35.5358C12.5472 34.2273 12.2525 32.8516 12.0308 31.3963C11.9511 30.8731 12.3111 30.3835 12.8352 30.3038C13.3556 30.2222 13.849 30.5841 13.9287 31.1083C14.1418 32.5089 14.426 33.8337 14.761 35.0913C17.3626 34.5364 20.1514 34.2004 23.04 34.1428V31.2523H24.96V34.1428C27.8439 34.2004 30.6346 34.5374 33.2391 35.0932C33.5741 33.8347 33.8583 32.5089 34.0724 31.1083C34.152 30.5841 34.6388 30.2222 35.1658 30.3038C35.69 30.3835 36.0509 30.8731 35.9703 31.3972C35.7476 32.8526 35.4529 34.2292 35.1063 35.5387C37.4775 36.1732 39.6336 37.0132 41.4912 38.0337C43.0781 35.9649 44.3261 33.5937 45.1239 30.9729ZM24.96 36.0628V46.5095C28.081 45.8884 30.9216 42.2865 32.6929 36.9355C30.2641 36.4276 27.6586 36.1185 24.96 36.0628ZM23.04 36.0628C20.3367 36.1185 17.7332 36.4267 15.3063 36.9335C17.0765 42.2855 19.9172 45.8894 23.04 46.5095V36.0628ZM34.5629 37.3761C33.385 40.9963 31.7434 43.9185 29.7946 45.8539C33.8372 44.771 37.4448 42.5697 40.2365 39.5371C38.5738 38.6606 36.6596 37.9339 34.5629 37.3761ZM13.4362 37.3732C11.3386 37.931 9.42629 38.6577 7.76261 39.5351C10.5543 42.5678 14.162 44.77 18.2045 45.8539C16.2548 43.9175 14.6132 40.9943 13.4362 37.3732ZM19.1499 20.6656L20.996 26.9267H21.0248L23.0859 20.6656H24.9176L26.9211 26.9267H26.949L28.8527 20.6656H30.669L27.8514 28.8525H26.0322L23.9855 22.5913H23.9576L21.8667 28.8525H20.0216L17.3317 20.6656H19.1499ZM35.52 20.6656L37.367 26.9267H37.3948L39.456 20.6656H41.2876L43.2921 26.9267H43.32L45.2227 20.6656H47.04L44.2214 28.8525H42.4051L40.3574 22.5913H40.3296L38.2387 28.8525H36.3936L33.7027 20.6656H35.52ZM2.77771 20.6654L4.62475 26.9265H4.65259L6.71467 20.6654H8.54539L10.5499 26.9265H10.5777L12.4795 20.6654H14.2977L11.4782 28.8523H9.66091L7.61515 22.5921H7.58539L5.49643 28.8523H3.65131L0.959473 20.6654H2.77771ZM23.9998 0.532364C34.6375 0.532364 43.8641 7.36468 46.961 17.533C47.1146 18.0399 46.8286 18.5765 46.3217 18.7311C46.2286 18.7589 46.1345 18.7733 46.0423 18.7733C45.6305 18.7733 45.2503 18.5064 45.1236 18.0927C44.3258 15.4719 43.0769 13.0988 41.489 11.0309C39.6305 12.0524 37.4782 12.8952 35.107 13.5298C35.4535 14.8383 35.7482 16.214 35.97 17.6684C36.0506 18.1916 35.6897 18.6812 35.1655 18.7618C34.6385 18.8434 34.1518 18.4805 34.0721 17.9573C33.859 16.5567 33.5738 15.2319 33.2388 13.9743C30.6382 14.5292 27.8484 14.8652 24.9598 14.9228V17.8124H23.0398V14.9228C20.1559 14.8642 17.3652 14.5282 14.7607 13.9724C14.4266 15.2309 14.1425 16.5557 13.9284 17.9564C13.8487 18.4805 13.3553 18.8434 12.835 18.7618C12.3108 18.6812 11.9508 18.1916 12.0305 17.6684C12.2522 16.213 12.5479 14.8354 12.8935 13.526C10.5233 12.8914 8.36712 12.0524 6.51048 11.0319C4.92264 13.0997 3.67464 15.4719 2.87688 18.0927C2.72232 18.5986 2.18664 18.8876 1.6788 18.7311C1.17192 18.5765 0.885841 18.0399 1.03944 17.533C4.1364 7.36468 13.363 0.532364 23.9998 0.532364ZM23.0398 2.55604C19.9178 3.1762 17.0762 6.77908 15.306 12.1301C17.7358 12.638 20.3412 12.9461 23.0398 13.0028V2.55604ZM24.9598 2.55604V13.0028C27.6631 12.9471 30.2666 12.6389 32.6935 12.132C30.9223 6.78004 28.0807 3.1762 24.9598 2.55604ZM29.7943 3.21076C31.7441 5.14708 33.3857 8.07028 34.5636 11.6924C36.6612 11.1346 38.5745 10.4069 40.2382 9.53044C37.4455 6.49684 33.8369 4.2946 29.7943 3.21076ZM18.2042 3.21172C14.1626 4.2946 10.555 6.49588 7.76424 9.52852C9.42696 10.404 11.3402 11.1308 13.4369 11.6885C14.6138 8.06836 16.2554 5.14708 18.2042 3.21172Z" fill="#777E90"/>
</svg>
