<?xml version="1.0" encoding="UTF-8"?>
<svg xmlns="http://www.w3.org/2000/svg" viewBox="0 0 24 24">
<path d="M0.499908 7.86L9.49991 13.06C9.65193 13.1478 9.82437 13.194 9.99991 13.194C10.1754 13.194 10.3479 13.1478 10.4999 13.06L19.4999 7.86C19.651 7.77275 19.7767 7.64746 19.8644 7.49659C19.9521 7.34572 19.9989 7.17452 19.9999 7C20.0006 6.82379 19.9547 6.65053 19.8669 6.49775C19.7791 6.34497 19.6525 6.21811 19.4999 6.13L10.4999 0.940005C10.3479 0.852237 10.1754 0.80603 9.99991 0.80603C9.82437 0.80603 9.65193 0.852237 9.49991 0.940005L0.499908 6.13C0.347304 6.21811 0.22069 6.34497 0.132887 6.49775C0.0450833 6.65053 -0.000791138 6.82379 -9.15701e-05 7C0.0009618 7.17452 0.0476673 7.34572 0.135383 7.49659C0.223099 7.64746 0.348771 7.77275 0.499908 7.86V7.86ZM9.99991 3L16.9999 7L9.99991 11L2.99991 7L9.99991 3ZM18.4999 10.17L9.99991 15L1.49991 10.13C1.38577 10.0639 1.25969 10.021 1.12891 10.0038C0.998131 9.98663 0.865245 9.99549 0.737905 10.0299C0.610565 10.0643 0.491286 10.1235 0.386939 10.2042C0.282592 10.2849 0.195238 10.3854 0.129909 10.5C-0.000463948 10.7296 -0.0347302 11.0015 0.0345866 11.2563C0.103904 11.5111 0.271177 11.7281 0.499908 11.86L9.49991 17.06C9.65193 17.1478 9.82437 17.194 9.99991 17.194C10.1754 17.194 10.3479 17.1478 10.4999 17.06L19.4999 11.86C19.7286 11.7281 19.8959 11.5111 19.9652 11.2563C20.0345 11.0015 20.0003 10.7296 19.8699 10.5C19.8046 10.3854 19.7172 10.2849 19.6129 10.2042C19.5085 10.1235 19.3893 10.0643 19.2619 10.0299C19.1346 9.99549 19.0017 9.98663 18.8709 10.0038C18.7401 10.021 18.614 10.0639 18.4999 10.13V10.17ZM18.4999 14.17L9.99991 19L1.49991 14.13C1.38577 14.0639 1.25969 14.021 1.12891 14.0038C0.998131 13.9866 0.865245 13.9955 0.737905 14.0299C0.610565 14.0643 0.491286 14.1235 0.386939 14.2042C0.282592 14.2849 0.195238 14.3854 0.129909 14.5C-0.000463948 14.7296 -0.0347302 15.0015 0.0345866 15.2563C0.103904 15.5111 0.271177 15.7281 0.499908 15.86L9.49991 21.06C9.65193 21.1478 9.82437 21.194 9.99991 21.194C10.1754 21.194 10.3479 21.1478 10.4999 21.06L19.4999 15.86C19.7286 15.7281 19.8959 15.5111 19.9652 15.2563C20.0345 15.0015 20.0003 14.7296 19.8699 14.5C19.8046 14.3854 19.7172 14.2849 19.6129 14.2042C19.5085 14.1235 19.3893 14.0643 19.2619 14.0299C19.1346 13.9955 19.0017 13.9866 18.8709 14.0038C18.7401 14.021 18.614 14.0639 18.4999 14.13V14.17Z" fill="#B1B5C3"/>
</svg>