<?xml version="1.0" encoding="UTF-8"?>
<svg xmlns="http://www.w3.org/2000/svg" viewBox="0 0 48 48" fill="none" >
<path fill-rule="evenodd" clip-rule="evenodd" d="M21.9077 0.492676C25.15 0.492676 27.7891 3.1318 27.7891 6.37416V40.6912C27.7891 43.9346 25.15 46.5727 21.9077 46.5727H6.84369C4.22028 46.5727 0.560059 44.1828 0.560059 40.289V6.77631C0.560059 3.48788 3.47881 0.492676 6.68242 0.492676H21.9077ZM21.9077 2.58722H6.68242C4.64966 2.58722 2.6546 4.66292 2.6546 6.77631V40.289C2.6546 42.9994 5.42255 44.4781 6.84369 44.4781H21.9077C23.9959 44.4781 25.6946 42.7795 25.6946 40.6912V6.37416C25.6946 4.2859 23.9959 2.58722 21.9077 2.58722ZM14.1746 40.8129C15.0417 40.8129 15.7455 41.5167 15.7455 42.3838C15.7455 43.2509 15.0417 43.9547 14.1746 43.9547C13.3075 43.9547 12.6037 43.2509 12.6037 42.3838C12.6037 41.5167 13.3075 40.8129 14.1746 40.8129ZM22.5528 5.72925C23.1309 5.72925 23.6001 6.19738 23.6001 6.77652V39.242C23.6001 39.8211 23.1309 40.2893 22.5528 40.2893H5.79642C5.21833 40.2893 4.74915 39.8211 4.74915 39.242V6.77652C4.74915 6.19738 5.21833 5.72925 5.79642 5.72925H22.5528ZM21.5055 7.82379H6.84369V38.1947H21.5055V7.82379Z" fill="#777E90"/>
</svg>
