<?xml version="1.0" encoding="UTF-8"?>
<svg xmlns="http://www.w3.org/2000/svg" viewBox="0 0 50 50">
<path d="M25,0A25,25,0,1,0,50,25,25,25,0,0,0,25,0Zm1,48V47a1,1,0,0,0-2,0v1A23,23,0,0,1,2,26H3a1,1,0,0,0,0-2H2A23,23,0,0,1,24,2V3a1,1,0,0,0,2,0V2A23,23,0,0,1,48,24H47a1,1,0,0,0,0,2h1A23,23,0,0,1,26,48Z"
fill="black"/>
<path d="M37.05,11.56,21.91,21.63a1.24,1.24,0,0,0-.28.28L11.56,37.05a1,1,0,0,0,.13,1.26,1,1,0,0,0,.7.3,1,1,0,0,0,.56-.17L28.09,28.37a1.07,1.07,0,0,0,.28-.28L38.44,13a1,1,0,0,0-1.39-1.39ZM23.19,23.19h0l3.62,3.62L16,34Z"
fill="black"/>
</svg>