<?xml version="1.0" encoding="UTF-8"?>
<svg xmlns="http://www.w3.org/2000/svg" viewBox="0 0 48 48">
<path fill-rule="evenodd" clip-rule="evenodd" d="M19 0.452393C25.4848 0.452393 30.76 5.89943 30.76 12.5935V17.7324H34.36C35.9478 17.7324 37.24 19.063 37.24 20.6988V42.607C37.24 44.2428 35.9478 45.5724 34.36 45.5724H3.64001C2.05217 45.5724 0.76001 44.2428 0.76001 42.607V20.6988C0.76001 19.063 2.05217 17.7324 3.64001 17.7324H7.24001V12.5935C7.24001 5.89943 12.5152 0.452393 19 0.452393ZM34.36 19.6524H3.64001C3.11105 19.6524 2.68001 20.1218 2.68001 20.6988V42.607C2.68001 43.1839 3.11105 43.6524 3.64001 43.6524H34.36C34.889 43.6524 35.32 43.1839 35.32 42.607V20.6988C35.32 20.1218 34.889 19.6524 34.36 19.6524ZM19 27.3328C20.6454 27.3328 21.9798 28.6662 21.9798 30.3126C21.9798 31.191 21.591 31.9734 20.9862 32.5187V35.2777C20.9862 36.3741 20.0973 37.264 19 37.264C17.9027 37.264 17.0138 36.3741 17.0138 35.2777V32.5187C16.409 31.9734 16.0202 31.191 16.0202 30.3126C16.0202 28.6662 17.3546 27.3328 19 27.3328ZM19 2.37239C13.5741 2.37239 9.16001 6.95831 9.16001 12.5935V17.7324H28.84V12.5935C28.84 6.95831 24.4259 2.37239 19 2.37239Z" fill="#777E90"/>
</svg>