<?xml version="1.0" encoding="UTF-8"?>
<svg width="24" height="24" viewBox="0 0 24 24" fill="none" xmlns="http://www.w3.org/2000/svg">
<path d="M20 17.9869L15.4415 13.3945C16.0379 12.4272 16.3541 11.3134 16.3552 10.177C16.3552 6.77049 13.5836 4 10.177 4C6.77049 4 4 6.7694 4 10.176C4 13.5825 6.77159 16.3541 10.1781 16.3541C11.2164 16.3541 12.1934 16.094 13.0525 15.6404L17.682 20.3049L20 17.9869V17.9869ZM6.18579 10.176C6.18579 7.97486 7.97705 6.1847 10.1781 6.1847C12.3792 6.1847 14.1705 7.97596 14.1705 10.176C14.1705 12.3781 12.3792 14.1683 10.1781 14.1683C7.97705 14.1683 6.18579 12.3781 6.18579 10.176Z" fill="#BABABA"/>
</svg>

