<?xml version="1.0" encoding="UTF-8"?>
 <svg xmlns="http://www.w3.org/2000/svg" viewBox="0 0 50 50">
    <path
        d="M11.7,24.1,25,20.7l13.3,3.4h.2a1,1,0,0,0,.9-.7.92.92,0,0,0-.7-1.1L25.1,18.8h-.5L11,22.3a.92.92,0,0,0-.7,1.1C10.7,24,11.2,24.3,11.7,24.1Z"
        fill="black"
    />
    <path
        d="M40.4,9.4H9.6a.9.9,0,0,0-.9.9v3.6a.79.79,0,0,0,.5.8l3.5,1.6v1.9a.9.9,0,1,0,1.8,0V15.7a.79.79,0,0,0-.5-.8l-3.5-1.6V11.2H39.4v2.1l-3.7,1.6a.87.87,0,0,0-.6.9l.1,2.5a.9.9,0,0,0,.9.9h0a.92.92,0,0,0,.9-1V16.4l3.7-1.6a1,1,0,0,0,.6-.8V10.4A.92.92,0,0,0,40.4,9.4Z"
        fill="black"
    />
    <path
        d="M16.8,8a.9.9,0,0,0,.9-.9V4.8H32.2V7.1a.9.9,0,0,0,1.8,0V3.9a.9.9,0,0,0-.9-.9H27.9V1.5A.9.9,0,0,0,27,.6H23a.92.92,0,0,0-1,.9V3H16.7a.9.9,0,0,0-.9.9V7.1A1,1,0,0,0,16.8,8Z"
        fill="black"
    />
    <path
        d="M38.8,47.2c-.6-.2-5.9-2.1-8.1-2.1a26,26,0,0,0-6.4,1.3,21,21,0,0,1-5.2,1.2c-1.8,0-6-1.3-7.4-1.8a.95.95,0,1,0-.6,1.8c.2.1,5.5,1.9,8,1.9a19.79,19.79,0,0,0,5.8-1.3,22.69,22.69,0,0,1,5.8-1.3c1.6,0,5.9,1.5,7.5,2a1,1,0,0,0,1.2-.5A1.07,1.07,0,0,0,38.8,47.2Z"
        fill="black"
    />
    <path
        d="M39,25.7,26.1,22.4H24L11,25.7a1.71,1.71,0,0,0-1.3,1.7l2,15.6h0v.5h0a2,2,0,0,0,1.1,1.1,32.16,32.16,0,0,0,6.3.9,20.3,20.3,0,0,0,6-1.3A21.74,21.74,0,0,1,30.7,43a16.48,16.48,0,0,1,5.2,1,1.76,1.76,0,0,0,2.1-.7h.1l.1-.4a1.09,1.09,0,0,0,.1-.5l2-14.8v-.1A1.72,1.72,0,0,0,39,25.7ZM36.6,41.8v.5h0a19.81,19.81,0,0,0-5.8-1.1,24.77,24.77,0,0,0-6.1,1.3,21.08,21.08,0,0,1-5.5,1.2,19.76,19.76,0,0,1-5.7-.9v-.5h0L11.6,27.4l12.6-3.2v6.5a1,1,0,0,0,.7.9.92.92,0,0,0,1.1-.7V24.1l12.7,3.3h0Z"
        fill="black"
    />
</svg>