<?xml version="1.0" encoding="UTF-8"?>
<svg xmlns="http://www.w3.org/2000/svg" viewBox="0 0 24 24" fill="none">
<path d="M8 16C7.44772 16 7 16.4477 7 17C7 17.5523 7.44772 18 8 18V16ZM8.01 18C8.56228 18 9.01 17.5523 9.01 17C9.01 16.4477 8.56228 16 8.01 16V18ZM3 2H13V0H3V2ZM13 2C13.5523 2 14 2.44772 14 3H16C16 1.34315 14.6569 0 13 0V2ZM14 3V19H16V3H14ZM14 19C14 19.5523 13.5523 20 13 20V22C14.6569 22 16 20.6569 16 19H14ZM13 20H3V22H13V20ZM3 20C2.44771 20 2 19.5523 2 19H0C0 20.6569 1.34315 22 3 22V20ZM2 19V3H0V19H2ZM2 3C2 2.44772 2.44772 2 3 2V0C1.34315 0 0 1.34315 0 3H2ZM8 18H8.01V16H8V18Z" fill="#777E90"/>
</svg>
