<?xml version="1.0" encoding="UTF-8"?>
<svg xmlns="http://www.w3.org/2000/svg" viewBox="0 0 20 17">
<path d="M13.1066 10.7533L11.7732 9.98666L12.3666 9.82666C12.4537 9.80635 12.5359 9.76872 12.6082 9.716C12.6805 9.66327 12.7414 9.59654 12.7873 9.51977C12.8333 9.443 12.8633 9.35777 12.8756 9.26915C12.8879 9.18053 12.8823 9.09033 12.859 9.00394C12.8357 8.91755 12.7953 8.83673 12.7401 8.76629C12.685 8.69586 12.6162 8.63725 12.5379 8.59395C12.4596 8.55066 12.3734 8.52357 12.2844 8.5143C12.1954 8.50503 12.1055 8.51377 12.0199 8.53999L10.1399 9.04666L8.33325 7.99999L10.1399 6.95332L12.0199 7.45999H12.1932C12.3701 7.48297 12.5488 7.43478 12.69 7.32601C12.8313 7.21724 12.9236 7.0568 12.9466 6.87999C12.9696 6.70318 12.9214 6.52448 12.8126 6.3832C12.7038 6.24192 12.5434 6.14964 12.3666 6.12666L11.7732 5.99999L13.1066 5.23332C13.1827 5.18955 13.2495 5.1312 13.3032 5.06161C13.3568 4.99202 13.3962 4.91255 13.4191 4.82774C13.442 4.74293 13.448 4.65444 13.4367 4.56732C13.4254 4.4802 13.397 4.39616 13.3532 4.31999C13.3095 4.24382 13.2511 4.17702 13.1815 4.12341C13.1119 4.06979 13.0325 4.0304 12.9477 4.0075C12.8629 3.98459 12.7744 3.97862 12.6872 3.98991C12.6001 4.00121 12.5161 4.02955 12.4399 4.07332L10.9999 4.91332L11.1999 4.17332C11.2261 4.08778 11.2349 3.99784 11.2256 3.90885C11.2163 3.81986 11.1892 3.73364 11.1459 3.65534C11.1027 3.57704 11.044 3.50826 10.9736 3.45309C10.9032 3.39792 10.8224 3.35749 10.736 3.33421C10.6496 3.31094 10.5594 3.30529 10.4708 3.3176C10.3821 3.32992 10.2969 3.35995 10.2201 3.4059C10.1434 3.45185 10.0766 3.51279 10.0239 3.58507C9.97118 3.65736 9.93355 3.73952 9.91325 3.82666L9.36658 5.82666L7.66658 6.84666V4.75999L9.04658 3.37999C9.17075 3.25508 9.24044 3.08611 9.24044 2.90999C9.24044 2.73387 9.17075 2.5649 9.04658 2.43999C8.9846 2.3775 8.91087 2.32791 8.82963 2.29406C8.74839 2.26022 8.66125 2.24279 8.57325 2.24279C8.48524 2.24279 8.3981 2.26022 8.31686 2.29406C8.23562 2.32791 8.16189 2.3775 8.09991 2.43999L7.66658 2.87332V1.33332C7.66658 1.15651 7.59634 0.986943 7.47132 0.861919C7.34629 0.736894 7.17672 0.666656 6.99991 0.666656C6.8231 0.666656 6.65353 0.736894 6.52851 0.861919C6.40348 0.986943 6.33325 1.15651 6.33325 1.33332V2.97999L5.79325 2.43999C5.73127 2.3775 5.65754 2.32791 5.5763 2.29406C5.49506 2.26022 5.40792 2.24279 5.31991 2.24279C5.23191 2.24279 5.14477 2.26022 5.06353 2.29406C4.98229 2.32791 4.90856 2.3775 4.84658 2.43999C4.72241 2.5649 4.65272 2.73387 4.65272 2.90999C4.65272 3.08611 4.72241 3.25508 4.84658 3.37999L6.33325 4.86666V6.86666L4.61991 5.85332L4.07325 3.85332C4.05295 3.76619 4.01531 3.68403 3.96259 3.61174C3.90986 3.53945 3.84313 3.47852 3.76636 3.43257C3.68959 3.38661 3.60436 3.35659 3.51574 3.34427C3.42712 3.33195 3.33692 3.3376 3.25053 3.36088C3.16414 3.38416 3.08332 3.42458 3.01288 3.47975C2.94245 3.53492 2.88384 3.60371 2.84054 3.68201C2.79725 3.76031 2.77016 3.84652 2.76089 3.93551C2.75162 4.0245 2.76036 4.11445 2.78658 4.19999L2.99991 4.91332L1.55991 4.08666C1.48375 4.04288 1.3997 4.01454 1.31258 4.00325C1.22546 3.99195 1.13697 3.99793 1.05216 4.02083C0.967349 4.04374 0.88788 4.08312 0.818291 4.13674C0.748701 4.19036 0.690354 4.25716 0.64658 4.33332C0.602806 4.40949 0.574463 4.49353 0.563169 4.58065C0.551875 4.66777 0.557851 4.75627 0.580756 4.84108C0.627015 5.01236 0.739421 5.15825 0.893247 5.24666L2.22658 5.99999L1.66658 6.17332C1.48977 6.19631 1.32933 6.28859 1.22056 6.42987C1.11179 6.57115 1.06359 6.74985 1.08658 6.92666C1.10957 7.10347 1.20185 7.26391 1.34312 7.37268C1.4844 7.48145 1.6631 7.52964 1.83991 7.50666H2.01325L3.89325 6.99999L5.66658 7.99999L3.85991 9.04666L1.97991 8.53999C1.8917 8.50723 1.79755 8.49352 1.70366 8.49976C1.60977 8.506 1.51827 8.53204 1.43516 8.57617C1.35206 8.62031 1.27924 8.68153 1.22149 8.75583C1.16374 8.83012 1.12237 8.9158 1.10011 9.00722C1.07785 9.09865 1.07519 9.19375 1.09231 9.28628C1.10943 9.3788 1.14595 9.46666 1.19946 9.54406C1.25297 9.62146 1.32225 9.68666 1.40276 9.73537C1.48328 9.78407 1.57318 9.81519 1.66658 9.82666L2.25991 9.98666L0.92658 10.7533C0.772754 10.8417 0.660348 10.9876 0.614089 11.1589C0.56783 11.3302 0.591508 11.5128 0.679913 11.6667C0.768319 11.8205 0.91421 11.9329 1.08549 11.9791C1.25678 12.0254 1.43942 12.0017 1.59325 11.9133L2.99991 11.0867L2.79991 11.8267C2.77349 11.912 2.76448 12.0018 2.77343 12.0907C2.78238 12.1795 2.8091 12.2657 2.85201 12.3441C2.89492 12.4224 2.95314 12.4914 3.02321 12.5468C3.09328 12.6022 3.17378 12.643 3.25991 12.6667C3.31751 12.6732 3.37565 12.6732 3.43325 12.6667C3.58376 12.6718 3.73158 12.6259 3.85263 12.5363C3.97369 12.4467 4.06085 12.3188 4.09991 12.1733L4.64658 10.1733L6.33325 9.15332V11.24L4.95325 12.62C4.82908 12.7449 4.75938 12.9139 4.75938 13.09C4.75938 13.2661 4.82908 13.4351 4.95325 13.56C5.01499 13.623 5.08862 13.6731 5.16987 13.7074C5.25112 13.7418 5.33838 13.7596 5.42658 13.76C5.51479 13.7596 5.60204 13.7418 5.68329 13.7074C5.76454 13.6731 5.83817 13.623 5.89991 13.56L6.33325 13.1267V14.6667C6.33325 14.8435 6.40348 15.013 6.52851 15.1381C6.65353 15.2631 6.8231 15.3333 6.99991 15.3333C7.17672 15.3333 7.34629 15.2631 7.47132 15.1381C7.59634 15.013 7.66658 14.8435 7.66658 14.6667V13.02L8.20658 13.56C8.26856 13.6225 8.34229 13.6721 8.42353 13.7059C8.50477 13.7398 8.59191 13.7572 8.67991 13.7572C8.76792 13.7572 8.85506 13.7398 8.9363 13.7059C9.01754 13.6721 9.09127 13.6225 9.15325 13.56C9.27741 13.4351 9.34711 13.2661 9.34711 13.09C9.34711 12.9139 9.27741 12.7449 9.15325 12.62L7.66658 11.1333V9.13332L9.37991 10.1267L9.92658 12.1267C9.96565 12.2721 10.0528 12.4 10.1739 12.4896C10.2949 12.5792 10.4427 12.6251 10.5932 12.62C10.6508 12.6265 10.709 12.6265 10.7666 12.62C10.8517 12.5976 10.9315 12.5585 11.0015 12.5051C11.0714 12.4516 11.1301 12.3848 11.1741 12.3086C11.2181 12.2324 11.2466 12.1482 11.2579 12.0609C11.2692 11.9736 11.2631 11.8849 11.2399 11.8L10.9999 11.0867L12.4266 11.9133C12.5027 11.9571 12.5868 11.9854 12.6739 11.9967C12.761 12.008 12.8495 12.0021 12.9343 11.9791C13.0191 11.9562 13.0986 11.9169 13.1682 11.8632C13.2378 11.8096 13.2961 11.7428 13.3399 11.6667C13.3837 11.5905 13.412 11.5064 13.4233 11.4193C13.4346 11.3322 13.4286 11.2437 13.4057 11.1589C13.3828 11.0741 13.3434 10.9946 13.2898 10.925C13.2362 10.8554 13.1694 10.7971 13.0932 10.7533H13.1066Z" fill="#777E90"/>
</svg>