<?xml version="1.0" encoding="UTF-8"?>
<svg xmlns="http://www.w3.org/2000/svg" viewBox="0 0 24 24" fill="none">
<path d="M16.7071 1.70711C17.0976 1.31658 17.0976 0.683418 16.7071 0.292893C16.3166 -0.0976311 15.6834 -0.0976311 15.2929 0.292893L16.7071 1.70711ZM11 6L10.2929 6.70711C10.6834 7.09763 11.3166 7.09763 11.7071 6.70711L11 6ZM6.70711 0.292893C6.31658 -0.0976311 5.68342 -0.0976311 5.29289 0.292893C4.90237 0.683418 4.90237 1.31658 5.29289 1.70711L6.70711 0.292893ZM3 8H19V6H3V8ZM19 8C19.5523 8 20 8.44771 20 9H22C22 7.34315 20.6569 6 19 6V8ZM20 9V20H22V9H20ZM20 20C20 20.5523 19.5523 21 19 21V23C20.6569 23 22 21.6569 22 20H20ZM19 21H3V23H19V21ZM3 21C2.44772 21 2 20.5523 2 20H0C0 21.6569 1.34315 23 3 23V21ZM2 20V9H0V20H2ZM2 9C2 8.44772 2.44772 8 3 8V6C1.34315 6 0 7.34315 0 9H2ZM15.2929 0.292893L10.2929 5.29289L11.7071 6.70711L16.7071 1.70711L15.2929 0.292893ZM11.7071 5.29289L6.70711 0.292893L5.29289 1.70711L10.2929 6.70711L11.7071 5.29289Z" fill="#777E90"/>
</svg>
