<?xml version="1.0" encoding="UTF-8"?>
<svg xmlns="http://www.w3.org/2000/svg" viewBox="0 0 20 17">
<path fill-rule="evenodd" clip-rule="evenodd" d="M7.86577 0.874629C8.06938 0.963014 8.19034 1.17505 8.16281 1.3953L7.5664 6.16661H13C13.194 6.16661 13.3705 6.27884 13.4528 6.45454C13.5351 6.63023 13.5083 6.83766 13.3841 6.98671L6.71745 14.9867C6.57535 15.1572 6.33785 15.2136 6.13424 15.1253C5.93064 15.0369 5.80967 14.8248 5.8372 14.6046L6.43362 9.83328H1.00001C0.805997 9.83328 0.629501 9.72105 0.547211 9.54536C0.464921 9.36967 0.491694 9.16223 0.615895 9.01319L7.28256 1.01319C7.42466 0.842671 7.66216 0.786245 7.86577 0.874629ZM2.06753 8.83328H7.00001C7.14342 8.83328 7.27993 8.89486 7.37485 9.00238C7.46976 9.10989 7.51393 9.25299 7.49615 9.3953L7.04101 13.0364L11.9325 7.16661H7.00001C6.85659 7.16661 6.72008 7.10503 6.62517 6.99751C6.53025 6.89 6.48608 6.7469 6.50387 6.6046L6.959 2.96351L2.06753 8.83328Z" fill="#ED2400"/>
</svg>