<?xml version="1.0" encoding="UTF-8"?>
<svg width="28" height="23" viewBox="0 0 28 23" fill="none" xmlns="http://www.w3.org/2000/svg">
<path d="M5.4 18.2C5.4 18.2 5.5 18.2 5.5 18.1L12.9 5.1V5H12.5C12.5 5 12.4 5 12.4 5.1L5 18.1V18.2H5.4V18.2ZM14.4 15.1C14.5 14.9 14.7 15 14.6 15.2C14.5 15.4 13 19 13 19H3.3L11.2 5H9.5C6.2 5 4.5 7.2 4.1 7.9C4 8.1 3.8 8 3.9 7.8C4 7.5 5.4 4.1 5.4 4.1C5.4 4.1 6.3 4.2 7.2 4.2H14.7L6.7 18.2H8.7C11.7 18.2 14 15.9 14.4 15.1V15.1ZM20 10.8H24V12.2H20V16.3H18.7V12.2H14.7V10.8H18.7V6.8H20V10.8Z" fill="white"/>
</svg>