<svg width="346" height="38" fill="none" xmlns="http://www.w3.org/2000/svg">
<style>
    * {
      fill: #000;
    }
    @media (prefers-color-scheme: dark) {
      * {
        fill: #fff;
      }
    }
  </style>
<path d="M2.8002 14.9999s.1 0 .1-.1l7.4-13v-.1h-.4s-.10001 0-.10001.1l-7.39999 13v.1h.4Zm9-3.1c.1-.2.3-.1.2.1-.1.2-1.6 3.8-1.6 3.8h-9.7l7.89999-14H6.9002c-3.3 0-5 2.2-5.4 2.9-.1.2-.3.1-.2-.1.1-.3 1.5-3.7 1.5-3.7s.9.1 1.8.1h7.5l-8 14h1.99999c3 0 5.30001-2.3 5.70001-3.1Z" fill="#000"/>
</svg>
   