<svg width="90" height="25" viewBox="0 0 90 25" fill="none" xmlns="http://www.w3.org/2000/svg">
<g clip-path="url(#clip0_325_291)">
<path d="M47.8293 11.4681L42.8081 24.5286H46.4099L47.3165 22.2587H51.9855L52.8338 24.5286H56.4543L51.5353 11.4681H47.8293ZM49.6468 15.5055H49.6823L51.0684 19.6616H48.2441L49.6468 15.5055Z" fill="#2BAEE5"/>
<path d="M61.4403 11.4681H58.0449V24.5286H61.4403V11.4681Z" fill="#E53212"/>
<path d="M64.644 11.4681H69.4589C73.0961 11.4681 76.0934 14.3278 76.0934 17.9983C76.0934 21.6689 73.0794 24.5286 69.4589 24.5286H64.644V11.4681ZM68.0394 21.6543H68.8023C70.8262 21.6543 72.5541 20.5454 72.5541 17.9983C72.5541 15.6597 71.0117 14.3445 68.8294 14.3445H68.0332L68.0394 21.6543Z" fill="#FFD400"/>
<path d="M83.1924 15.5055H83.2278L84.6139 19.6616H81.7917L83.1924 15.5055ZM81.3748 11.4681L76.3516 24.5286H79.9533L80.8538 22.2587H85.531L86.3814 24.5286H89.9999L85.0808 11.4681H81.3748Z" fill="#51AD32"/>
<path d="M1.18377 0.25429C1.21593 0.185391 1.26589 0.126321 1.3285 0.0831759C1.39111 0.0400306 1.46409 0.0143727 1.53993 0.00884979C1.61576 0.00332691 1.69169 0.0181391 1.75989 0.0517579C1.82809 0.0853767 1.88608 0.136584 1.92788 0.200097C4.63754 3.14111 7.34719 5.30883 9.43153 5.30675C14.1297 5.30675 16.3203 1.78837 21.7 1.50073C21.7 1.50073 28.1073 0.681581 32.3906 6.8846C33.4328 8.17272 33.5266 8.83138 33.7246 8.87098C34.2144 8.45411 37.12 5.64441 38.6291 4.31877C38.9409 4.04359 39.268 3.78612 39.6087 3.54756C40.6509 2.87014 41.7097 2.6367 42.1308 3.13069C42.6206 3.62259 42.6915 4.11241 42.5476 4.88362C42.5476 5.44431 42.3392 6.45314 43.9379 5.38387C45.0822 4.61891 45.6054 3.87688 45.9805 3.76224C46.0081 3.75376 46.0371 3.7515 46.0656 3.75564C46.0941 3.75978 46.1213 3.77021 46.1452 3.78618C46.1692 3.80215 46.1893 3.82325 46.2041 3.84795C46.2188 3.87265 46.2279 3.90034 46.2307 3.92899C46.2307 4.12701 40.1861 10.4759 39.1668 11.491C38.3831 12.2726 30.8399 20.56 29.4246 22.7694C28.7451 23.8324 28.3407 24.5557 28.2011 24.5369C27.8426 24.4848 22.5233 24.5807 11.3491 15.5388C5.69222 10.8532 3.57035 5.56937 0.510529 3.72056C0.370878 3.6351 -0.260679 3.39748 0.118672 2.67838C0.118672 2.67838 1.13583 0.360591 1.18169 0.266796" fill="#160000"/>
<path fill-rule="evenodd" clip-rule="evenodd" d="M41.1055 4.39589C41.1416 4.39275 41.1779 4.39275 41.2139 4.39589C41.2962 4.40366 41.3755 4.43098 41.4451 4.47557C41.5147 4.52017 41.5727 4.58075 41.6141 4.65226C41.8663 5.0733 41.7955 5.58397 41.7371 6.00084C41.6912 6.31974 41.66 6.56778 41.7913 6.66991C41.9226 6.77204 42.1977 6.70534 42.6855 6.46148L44.0049 5.83617C43.4379 6.28639 41.3536 7.92677 40.0092 8.84388C39.8456 8.97558 39.68 9.10537 39.5053 9.24239L39.4818 9.26075C38.4272 10.0945 37.2308 11.0366 36.1052 10.7406C34.6573 10.2802 33.5634 11.9125 32.505 13.4917L32.5035 13.4941C32.4764 13.5343 32.4493 13.5748 32.4222 13.6153C32.368 13.6964 32.3138 13.7775 32.2596 13.8567C31.7218 14.655 31.2341 15.0636 30.7672 15.1073C30.2253 15.1574 29.775 14.7072 29.3415 14.2736L29.3186 14.2507C29.2583 14.1904 29.1905 14.1181 29.1126 14.035C29.0989 14.0204 29.0849 14.0054 29.0705 13.9901C28.1618 13.0126 26.1295 10.8282 22.0838 10.8282C21.7253 10.8282 21.3543 10.8449 20.9645 10.8824C16.5019 11.3764 13.563 10.9303 10.82 9.34413C8.77317 8.15813 6.51999 6.2447 5.24854 5.07955C5.69175 5.42962 6.16301 5.74263 6.65755 6.01543C7.90816 6.71368 9.88412 7.42861 12.0769 6.87001C13.2001 6.55079 14.3039 6.16662 15.3826 5.71945C17.221 4.99618 19.3075 4.19162 21.3459 3.95401C23.6742 3.68304 25.6105 4.19996 27.2634 5.53394C29.4968 7.3414 30.2267 8.39718 31.2305 9.84885L31.2403 9.86313C31.4404 10.1591 31.6489 10.4572 31.8823 10.7844C31.9553 10.8865 32.0178 10.9783 32.072 11.0616L32.0781 11.0707C32.2495 11.3237 32.3531 11.4766 32.5014 11.491C32.7265 11.5098 33.0204 11.2034 33.8041 10.3863L34.221 9.9465C34.4233 9.75071 34.6486 9.5281 34.8879 9.29167C34.9543 9.22606 35.0218 9.15938 35.0901 9.09192L35.1039 9.07827C37.0069 7.19825 39.8434 4.39589 41.1055 4.39589ZM32.9203 14.1652C34.0167 12.4852 34.963 11.0387 36.2323 11.4827C37.1515 11.8016 38.2875 11.1408 39.188 10.4134C36.5033 13.0814 31.0402 18.5278 28.9288 21.5938C28.4035 22.3296 28.3348 22.4255 27.4843 22.19C27.3676 22.1545 27.228 22.117 27.0675 22.0753C26.2275 21.8669 23.2344 20.8476 19.4825 18.6882C17.1542 17.3424 14.9395 15.8088 12.8606 14.1027C10.5092 12.1662 8.33428 10.0248 6.36157 7.70374C7.18281 8.5547 8.07616 9.33298 9.03162 10.0299C10.9096 11.391 13.859 12.9813 17.1939 12.8312C20.3413 12.6916 22.1901 12.6291 23.6179 12.9709C25.004 13.3023 25.9732 13.9943 27.6177 15.42C27.8628 15.6057 28.0914 15.8029 28.2975 15.9808C28.3227 16.0026 28.3477 16.0241 28.3723 16.0453C28.3889 16.0597 28.4055 16.074 28.4219 16.0882C29.1732 16.737 29.7092 17.2 30.3211 17.1021C30.9464 17.002 31.6155 16.285 32.6139 14.6342L32.9203 14.1652Z" fill="#E53212"/>
</g>
<defs>
<clipPath id="clip0_325_291">
<rect width="90" height="24.5328" fill="white"/>
</clipPath>
</defs>
</svg>
